<svg width="128" height="128" viewBox="0 0 128 128" fill="none" xmlns="http://www.w3.org/2000/svg">
<rect width="128" height="128" rx="7" fill="#CFE0FF"/>
<path d="M22.0025 74C21.8051 74 21.6275 73.9309 21.4697 73.7928C21.3118 73.6349 21.2329 73.4475 21.2329 73.2304V54.0496C21.2329 53.8325 21.3118 53.6549 21.4697 53.5168C21.6275 53.3589 21.8051 53.28 22.0025 53.28H36.7729C36.9899 53.28 37.1774 53.3589 37.3353 53.5168C37.4931 53.6549 37.5721 53.8325 37.5721 54.0496V57.7792C37.5721 57.9963 37.4931 58.1837 37.3353 58.3416C37.1774 58.4797 36.9899 58.5488 36.7729 58.5488H27.5969V61.0056H31.0009C33.4873 61.0056 35.4507 61.5779 36.8913 62.7224C38.3318 63.8669 39.0521 65.4357 39.0521 67.4288C39.0521 68.3957 38.8745 69.2837 38.5193 70.0928C38.1641 70.9019 37.6411 71.6024 36.9505 72.1944C36.2795 72.7667 35.4409 73.2107 34.4345 73.5264C33.4478 73.8421 32.3033 74 31.0009 74H22.0025ZM27.5969 69.5304H30.4681C30.9022 69.5304 31.2673 69.4317 31.5633 69.2344C31.8593 69.0173 32.0763 68.7509 32.2145 68.4352C32.3723 68.1195 32.4513 67.784 32.4513 67.4288C32.4513 66.8763 32.2737 66.3928 31.9185 65.9784C31.583 65.564 31.0995 65.3568 30.4681 65.3568H27.5969V69.5304ZM41.2732 74C41.0561 74 40.8687 73.9309 40.7108 73.7928C40.5727 73.6349 40.5036 73.4475 40.5036 73.2304V68.7904C40.5036 68.5733 40.5727 68.3859 40.7108 68.228C40.8687 68.0701 41.0561 67.9912 41.2732 67.9912H45.7132C45.9303 67.9912 46.1177 68.0701 46.2756 68.228C46.4335 68.3859 46.5124 68.5733 46.5124 68.7904V73.2304C46.5124 73.4475 46.4335 73.6349 46.2756 73.7928C46.1177 73.9309 45.9303 74 45.7132 74H41.2732ZM50.4462 74C50.2489 74 50.0713 73.9309 49.9134 73.7928C49.7555 73.6547 49.6766 73.4672 49.6766 73.2304V54.0496C49.6766 53.8325 49.7555 53.6549 49.9134 53.5168C50.0713 53.3589 50.2489 53.28 50.4462 53.28H55.271C55.4881 53.28 55.6657 53.3589 55.8038 53.5168C55.9617 53.6549 56.0406 53.8325 56.0406 54.0496V60.7392H62.079V54.0496C62.079 53.8325 62.1481 53.6549 62.2862 53.5168C62.4441 53.3589 62.6315 53.28 62.8486 53.28H67.6734C67.8905 53.28 68.0681 53.3589 68.2062 53.5168C68.3641 53.6549 68.443 53.8325 68.443 54.0496V73.2304C68.443 73.4475 68.3641 73.6349 68.2062 73.7928C68.0681 73.9309 67.8905 74 67.6734 74H62.8486C62.6315 74 62.4441 73.9309 62.2862 73.7928C62.1481 73.6349 62.079 73.4475 62.079 73.2304V66.3632H56.0406V73.2304C56.0406 73.4475 55.9617 73.6349 55.8038 73.7928C55.6657 73.9309 55.4881 74 55.271 74H50.4462ZM72.4341 74C72.2171 74 72.0296 73.9309 71.8717 73.7928C71.7336 73.6349 71.6645 73.4475 71.6645 73.2304V68.7904C71.6645 68.5733 71.7336 68.3859 71.8717 68.228C72.0296 68.0701 72.2171 67.9912 72.4341 67.9912H76.8741C77.0912 67.9912 77.2787 68.0701 77.4365 68.228C77.5944 68.3859 77.6733 68.5733 77.6733 68.7904V73.2304C77.6733 73.4475 77.5944 73.6349 77.4365 73.7928C77.2787 73.9309 77.0912 74 76.8741 74H72.4341ZM81.6071 74C81.4098 74 81.2322 73.9309 81.0743 73.7928C80.9165 73.6349 80.8375 73.4475 80.8375 73.2304V54.0496C80.8375 53.8128 80.9165 53.6253 81.0743 53.4872C81.2322 53.3491 81.4098 53.28 81.6071 53.28H86.4319C86.649 53.28 86.8266 53.3589 86.9647 53.5168C87.1226 53.6549 87.2015 53.8325 87.2015 54.0496V68.376H90.6351V54.0496C90.6351 53.8325 90.7042 53.6549 90.8423 53.5168C91.0002 53.3589 91.1877 53.28 91.4047 53.28H96.2295C96.4466 53.28 96.6242 53.3589 96.7623 53.5168C96.9202 53.6549 96.9991 53.8325 96.9991 54.0496V68.376H100.403V54.0496C100.403 53.8325 100.472 53.6549 100.61 53.5168C100.768 53.3589 100.956 53.28 101.173 53.28H105.998C106.215 53.28 106.392 53.3589 106.53 53.5168C106.688 53.6549 106.767 53.8325 106.767 54.0496V73.2304C106.767 73.4475 106.688 73.6349 106.53 73.7928C106.392 73.9309 106.215 74 105.998 74H81.6071Z" fill="#0D1C37"/>
</svg>
